<?xml version="1.0" standalone="no"?>
<!DOCTYPE svg PUBLIC "-//W3C//DTD SVG 20010904//EN"
 "http://www.w3.org/TR/2001/REC-SVG-20010904/DTD/svg10.dtd">
<svg version="1.0" xmlns="http://www.w3.org/2000/svg"
 width="256.000000pt" height="256.000000pt" viewBox="0 0 256.000000 256.000000"
 preserveAspectRatio="xMidYMid meet">
<metadata>
Created by potrace 1.14, written by Peter Selinger 2001-2017
</metadata>
<g transform="translate(0.000000,256.000000) scale(0.100000,-0.100000)"
fill="#000000" stroke="none">
<path d="M1507 2238 c-9 -7 -25 -34 -36 -60 -11 -27 -22 -48 -24 -48 -3 0 -50
23 -106 50 -118 58 -136 62 -173 44 -26 -13 -48 -62 -48 -106 0 -10 -2 -18 -4
-18 -3 0 -54 24 -114 54 -118 57 -150 62 -175 22 -15 -22 -57 -150 -57 -172 0
-21 -13 -23 -52 -9 -30 10 -41 10 -55 0 -22 -16 -90 6 -114 37 -12 16 -23 19
-42 14 -37 -9 -49 -37 -52 -125 -2 -42 -3 -81 -4 -87 -1 -7 -27 -12 -68 -13
-134 -4 -156 -8 -180 -36 -30 -35 -29 -49 12 -139 19 -43 35 -80 35 -84 0 -4
-42 -22 -94 -41 -106 -37 -126 -53 -126 -101 0 -29 10 -43 59 -90 l60 -55 -75
-80 c-69 -73 -75 -83 -70 -113 7 -47 18 -57 97 -88 39 -15 72 -31 75 -36 3 -5
-4 -50 -17 -101 -28 -115 -26 -136 10 -169 36 -32 54 -29 190 31 l94 42 47
-47 c53 -54 152 -117 221 -141 l46 -17 -5 -62 c-4 -51 -1 -68 18 -102 42 -74
147 -105 215 -63 30 18 32 18 65 0 19 -11 54 -19 78 -19 100 0 166 74 171 193
1 16 10 18 73 15 l72 -3 37 -73 c45 -89 61 -108 105 -122 52 -17 88 -15 137 9
l45 22 34 -21 c105 -62 242 16 241 138 0 26 -9 72 -20 103 l-19 57 53 41 c43
33 53 46 48 62 -8 25 53 97 79 93 59 -9 156 235 157 396 l1 76 47 17 c108 38
161 102 157 189 -3 77 -73 148 -143 148 l-35 0 8 43 c17 97 -8 143 -81 149
-23 2 -25 6 -20 35 2 17 8 61 11 97 6 60 5 66 -19 90 -31 31 -56 32 -132 6
-31 -11 -61 -18 -65 -15 -4 3 -32 43 -61 89 -81 128 -114 135 -200 46 -31 -33
-60 -60 -63 -60 -3 0 -43 27 -89 60 -87 62 -126 73 -160 48z"/>
</g>
</svg>
